<?xml version="1.0" encoding="UTF-8" standalone="no"?>
<!-- Created with Inkscape (http://www.inkscape.org/) -->

<svg
   xmlns:dc="http://purl.org/dc/elements/1.1/"
   xmlns:cc="http://creativecommons.org/ns#"
   xmlns:rdf="http://www.w3.org/1999/02/22-rdf-syntax-ns#"
   xmlns:svg="http://www.w3.org/2000/svg"
   xmlns="http://www.w3.org/2000/svg"
   xmlns:sodipodi="http://sodipodi.sourceforge.net/DTD/sodipodi-0.dtd"
   xmlns:inkscape="http://www.inkscape.org/namespaces/inkscape"
   version="1.1"
   id="svg2"
   width="720"
   height="720"
   viewBox="0 0 720 720"
   sodipodi:docname="lixeira.svg"
   enable-background="new"
   inkscape:version="0.92.2 (5c3e80d, 2017-08-06)">
  <metadata
     id="metadata8">
    <rdf:RDF>
      <cc:Work
         rdf:about="">
        <dc:format>image/svg+xml</dc:format>
        <dc:type
           rdf:resource="http://purl.org/dc/dcmitype/StillImage" />
        <dc:title></dc:title>
      </cc:Work>
    </rdf:RDF>
  </metadata>
  <defs
     id="defs6">
    <filter
       inkscape:collect="always"
       style="color-interpolation-filters:sRGB"
       id="filter1524">
      <feBlend
         inkscape:collect="always"
         mode="soft-light"
         in2="BackgroundImage"
         id="feBlend1526" />
    </filter>
  </defs>
  <sodipodi:namedview
     pagecolor="#ffffff"
     bordercolor="#666666"
     borderopacity="1"
     objecttolerance="10"
     gridtolerance="10"
     guidetolerance="10"
     inkscape:pageopacity="0"
     inkscape:pageshadow="2"
     inkscape:window-width="1024"
     inkscape:window-height="715"
     id="namedview4"
     showgrid="false"
     inkscape:zoom="1.8541911"
     inkscape:cx="610.82297"
     inkscape:cy="72.94976"
     inkscape:window-x="-8"
     inkscape:window-y="-8"
     inkscape:window-maximized="1"
     inkscape:current-layer="layer2" />
  <g
     inkscape:groupmode="layer"
     id="layer1"
     inkscape:label="Layer 1"
     style="display:inline;">
    <g
       id="g12"
       transform="matrix(0.04168073,0,0,0.04175291,684.57253,691.92891)"
       inkscape:export-xdpi="96"
       inkscape:export-ydpi="96">
      <path
         style="fill:#cee3a7"
         d="M 323.5,718.78803 C 267.43834,714.66407 205.31042,691.98661 155.10469,657.32165 120.82536,633.65321 86.34679,599.17464 62.678346,564.89531 27.188412,513.49474 5.2672655,452.52825 1.0513613,393.5 -0.30150475,374.55808 -0.30774143,344.77326 1.037343,326.55224 6.0906938,258.09765 33.15143,190.6875 78.253114,134.20245 91.252863,117.92165 117.92165,91.252863 134.20245,78.253114 180.02963,41.661429 233.06253,16.938657 290,5.623723 c 37.87262,-7.5262607 102.12738,-7.5262607 140,0 56.94905,11.317237 110.04831,36.074303 155.79755,72.639247 15.20873,12.155528 41.52519,38.15593 53.49401,52.85157 46.42033,56.99605 74.64916,126.25143 79.64007,195.38546 1.3833,19.16148 1.40191,50.04056 0.041,68 -5.20334,68.66552 -32.12263,134.95317 -78.35281,192.94051 -10.30937,12.93123 -40.22406,42.85088 -53.13426,53.14307 -57.98635,46.22753 -125.01918,73.44144 -192.98554,78.34805 -17.10927,1.23514 -53.25083,1.16205 -71,-0.1436 z m 157,-137.88678 c 4.66766,-1.26912 9.20669,-5.142 11.03978,-9.41957 1.95543,-4.56307 2.23134,-9.43193 6.51563,-114.98168 2.18782,-53.9 4.88527,-119.15 5.99434,-145 1.10907,-25.85 2.29637,-55.8875 2.63845,-66.75 L 507.31015,225 H 360.00324 212.69633 l 0.6082,19.25 c 1.07121,33.90496 12.58199,310.9849 13.22112,318.25 0.95996,10.91213 5.25071,16.68006 13.97435,18.78534 4.44428,1.07253 236.0057,0.70196 240,-0.38409 z M 253.53755,545.76742 C 252.30249,540.26887 241.25102,254.44883 242.22712,253.25 c 1.24747,-1.53212 52.37727,-1.78542 54.77288,-0.27135 1.29916,0.82109 1.78466,16.58501 3.62598,117.73469 1.16929,64.23266 2.29429,130.28666 2.5,146.78666 l 0.37402,30 -24.72658,0.26742 -24.72657,0.26742 z M 332.06184,545.75 C 330.65245,542.20793 325.83456,254.90427 327.15782,253.30984 328.0122,252.28037 335.04212,252 360,252 c 24.95788,0 31.9878,0.28037 32.84218,1.30984 1.32326,1.59443 -3.49463,288.89809 -4.90402,292.44016 L 387.04288,548 H 360 332.95712 Z m 84.54642,1.42517 c -0.39355,-0.63677 2.31793,-164.88516 4.60525,-278.96359 0.22836,-11.38935 0.59084,-14.48041 1.78649,-15.23469 2.39746,-1.51243 53.52761,-1.25746 54.76868,0.27311 0.97103,1.19754 -10.07218,287.04591 -11.30019,292.5 L 465.9619,548 h -24.42194 c -13.43206,0 -24.65132,-0.37117 -24.9317,-0.82483 z m 93.97034,-341.0715 c 12.76187,-5.79616 13.39067,-23.1392 1.0831,-29.87365 -2.80747,-1.53619 -7.79987,-1.78604 -44.5602,-2.23002 l -41.39851,-0.5 -1.77947,-5.5 C 421.71531,161.17489 415.30079,154.96339 407.7374,152.32618 402.98394,150.66874 398.57296,150.5 360,150.5 c -38.57296,0 -42.98394,0.16874 -47.7374,1.82618 -7.56339,2.63721 -13.97791,8.84871 -16.18612,15.67382 l -1.77947,5.5 -41.39851,0.5 c -36.76033,0.44398 -41.75273,0.69383 -44.5602,2.23002 -6.97766,3.81803 -10.4473,11.73739 -8.37896,19.12476 1.40553,5.02004 6.23263,10.28725 10.63437,11.60395 1.59846,0.47815 68.83129,0.89816 149.40629,0.93336 140.55034,0.0614 146.66564,-0.0112 150.5786,-1.78842 z m -197.1572,-22 c -9.01,-4.09214 -11.19101,-12.26739 -4.94029,-18.51812 1.91462,-1.91461 5.17712,-3.9521 7.25,-4.52775 2.33912,-0.64959 19.13298,-1.04665 44.26889,-1.04665 25.13591,0 41.92977,0.39706 44.26889,1.04665 2.07288,0.57565 5.33538,2.61314 7.25,4.52775 6.25072,6.25073 4.06971,14.42598 -4.94029,18.51812 -3.76543,1.71017 -7.34187,1.85241 -46.5786,1.85241 -39.23673,0 -42.81317,-0.14224 -46.5786,-1.85241 z"
         id="path26"
         inkscape:connector-curvature="0" />
      <path
         style="fill:#a6cd5d"
         d="M 330.5,718.84763 C 256.76604,712.37782 186.99458,684.00509 131.21321,637.80719 68.986076,586.27093 26.170382,516.38013 8.5226244,437.5315 -4.3949235,379.81702 -2.315592,317.0438 14.430604,259.17471 25.340013,221.47554 44.734014,181.77265 68.038875,149.42926 83.347401,128.18349 105.24096,104.43947 125.79653,86.789905 180.25392,40.03129 244.89235,11.700049 318.5,2.3273152 c 19.60462,-2.49632897 63.39538,-2.49632897 83,0 83.62538,10.6483278 155.57794,45.7180308 213.88394,104.2471048 48.72928,48.91572 82.20396,110.78759 96.69553,178.72412 9.49797,44.5265 10.34145,95.16267 2.31046,138.70146 C 690.36143,554.26685 598.63032,660.06799 473.5,701.83848 c -44.14838,14.73743 -97.10431,21.03628 -143,17.00915 z M 482.3162,581.55119 c 7.31425,-2.60859 11.03368,-8.16401 12.08551,-18.05119 0.35107,-3.3 2.20992,-44.7 4.13078,-92 1.92087,-47.3 4.83686,-117.94084 6.48,-156.97965 1.64313,-39.0388 2.98751,-75.3763 2.98751,-80.75 V 224 H 360 212 l 0.001,9.75 c 0.002,13.2388 12.78422,324.46417 13.58415,330.75 1.20422,9.46276 4.7144,14.41886 12.06959,17.04135 5.68691,2.02766 238.9769,2.03704 244.66101,0.01 z M 254.56595,544.75 c -0.53104,-2.53066 -11.6279,-274.81907 -11.59016,-284.39301 0.0184,-4.66359 0.40515,-6.28919 1.606,-6.75 2.5269,-0.96966 49.7699,-0.67023 51.34309,0.32542 1.20202,0.76075 1.84284,23.55485 4.09707,145.73469 1.4697,79.6581 2.46786,145.3954 2.21813,146.0829 -0.34559,0.9514 -6.03768,1.25 -23.82802,1.25 H 255.0381 Z m 78.78338,1.00621 c -1.23679,-2.00117 -6.28421,-290.04156 -5.10815,-291.50621 1.45193,-1.8082 62.06571,-1.8082 63.51764,0 1.17606,1.46465 -3.87136,289.50504 -5.10815,291.50621 -1.10969,1.79552 -52.19165,1.79552 -53.30134,0 z m 84.41059,-0.006 c -0.24973,-0.6875 0.74843,-66.4248 2.21813,-146.0829 2.25423,-122.17984 2.89505,-144.97394 4.09707,-145.73469 1.57319,-0.99565 48.81619,-1.29508 51.34309,-0.32542 1.20085,0.46081 1.58762,2.08641 1.606,6.75 0.0377,9.57394 -11.05912,281.86235 -11.59016,284.39301 l -0.47215,2.25 h -23.37396 c -17.79034,0 -23.48243,-0.2986 -23.82802,-1.25 z m 93.99034,-338.87115 c 12.45551,-6.02961 13.28058,-23.72178 1.44933,-31.07844 -3.66749,-2.28045 -4.05834,-2.30475 -45.0507,-2.80041 l -41.35111,-0.5 -1.82409,-4.80754 c -2.83337,-7.46761 -6.30705,-11.23895 -13.70762,-14.88224 L 404.54205,149.5 H 360 315.45795 l -6.5142,3.20693 c -8.01948,3.94797 -10.40448,6.4163 -13.45536,13.92548 l -2.38393,5.86759 -41.37719,0.5 -41.3772,0.5 -4.05388,2.68402 c -7.17945,4.75339 -10.00897,13.78096 -6.75805,21.5615 2.07194,4.95886 4.20404,7.18895 8.96186,9.37375 3.82336,1.75569 10.5108,1.83778 151.43428,1.85877 l 147.43427,0.022 4.38171,-2.12115 z M 319.6873,184.99229 c -12.42193,-2.17954 -17.77418,-11.74942 -10.4373,-18.66202 1.7875,-1.68413 4.77965,-3.5724 6.64922,-4.19616 4.73023,-1.57818 83.47133,-1.57818 88.20156,0 1.86957,0.62376 4.86172,2.51203 6.64922,4.19616 6.03421,5.68527 3.6189,13.35397 -5.49925,17.46029 -3.28698,1.48029 -8.51115,1.71121 -42.25075,1.86765 -21.175,0.0982 -40.66571,-0.20149 -43.3127,-0.66592 z"
         id="path24"
         inkscape:connector-curvature="0" />
      <path
         style="fill:#90c234"
         d="M 337.5,719.02424 C 280.7917,713.2692 239.61772,701.74508 196,679.42002 143.38637,652.49055 95.947053,610.58178 63.084464,562 30.215996,513.40952 10.694924,460.94972 2.9879193,400.5 -1.3542082,366.44262 -0.50391399,338.60691 6.088428,299 14.66079,247.49709 36.321462,195.61608 67.883314,150.9907 90.151132,119.50617 125.35171,85.169026 158,63.084464 204.8026,31.425388 261.36176,9.9293087 313.5,3.9845787 319,3.3574763 325.35933,2.436314 327.63184,1.9375513 334.44911,0.44132199 367.67782,-0.23843817 380,0.86625529 433.70982,5.6813854 473.12485,16.034909 515.69609,36.510852 c 36.52346,17.567074 65.23792,37.724928 94.68047,66.466678 30.54922,29.82208 51.82567,58.82416 70.44382,96.02247 22.32408,44.60262 33.25099,84.86344 38.26784,141 2.6149,29.25968 -1.62829,72.15908 -10.73175,108.5 -23.83442,95.14678 -87.25473,177.4044 -174.20228,225.94441 -50.26122,28.05922 -109.69326,44.02098 -167.65419,45.02716 -11.55,0.2005 -24.6,-8e-4 -29,-0.44733 z M 484.78984,581.10641 c 9.55198,-4.87513 10.09568,-7.02205 11.77955,-46.51381 8.83466,-207.19852 11.7542,-279.74779 11.83493,-294.0926 l 0.0957,-17 h -148.5 -148.5 l 0.14213,19 c 0.14827,19.82029 11.82507,309.14399 12.93496,320.49789 0.93522,9.56716 5.02598,16.32765 11.42342,18.87866 1.60945,0.64177 45.68924,1.01925 123.78933,1.06006 117.113,0.0612 121.4176,-0.002 125,-1.8302 z M 255.50078,544.75 c -0.62511,-1.79035 -12.32685,-289.09809 -11.81139,-290 0.23576,-0.4125 12.09351,-0.75 26.35057,-0.75 h 25.92194 l 0.43769,2.25 c 0.63052,3.24128 5.50949,288.08809 4.94999,288.99338 C 301.09239,545.65952 290.7694,546 278.4096,546 c -17.07846,0 -22.57713,-0.30003 -22.90882,-1.25 z m 78.06782,0 c -0.59946,-2.03272 -5.50279,-289.04747 -4.95324,-289.93665 0.65697,-1.06301 62.11231,-1.06301 62.76928,0 0.54955,0.88918 -4.35378,287.90393 -4.95324,289.93665 -0.28269,0.9586 -6.44446,1.25 -26.4314,1.25 -19.98694,0 -26.14871,-0.2914 -26.4314,-1.25 z m 85.0776,0.48655 c -0.56195,-0.90925 4.32123,-285.7271 4.95465,-288.98655 L 424.0381,254 h 25.92194 c 14.25706,0 26.11397,0.3375 26.34869,0.75 0.5141,0.90349 -11.18598,288.21336 -11.80963,290 -0.3316,0.94997 -5.83018,1.25 -22.9087,1.25 -12.3598,0 -22.68469,-0.34355 -22.9442,-0.76345 z m 93.00893,-337.65636 c 9.54168,-4.44269 13.31695,-15.8341 8.42534,-25.42246 -2.38008,-4.66534 -6.00453,-7.49426 -11.58047,-9.03867 -2.60704,-0.72209 -17.48086,-1.10985 -42.71146,-1.11348 L 427.07709,172 426.0415,168.15412 c -2.41701,-8.9761 -10.81671,-16.18631 -21.89405,-18.79362 -8.04592,-1.89379 -80.24898,-1.89379 -88.2949,0 -11.05685,2.60249 -19.47715,9.81793 -21.88272,18.75154 l -1.02426,3.8038 -40.72278,0.29208 c -37.58516,0.26958 -41.01607,0.43776 -44.52924,2.18281 -7.53371,3.74212 -11.97655,13.31965 -9.82594,21.18204 1.47872,5.40603 6.68848,11.1992 11.63239,12.93503 3.36277,1.18068 27.33861,1.40985 150.5,1.43854 l 146.5,0.0341 5.15513,-2.40027 z M 316.5,183.79475 c -11.85619,-4.2679 -13.59863,-13.71258 -3.61285,-19.58297 L 317.5,161.5 h 42.5 42.5 l 4.61285,2.71178 c 2.87561,1.6905 5.10922,3.91014 5.93087,5.89378 1.16125,2.8035 1.08835,3.60178 -0.61284,6.71102 -1.10486,2.01933 -3.64205,4.41764 -5.93088,5.60622 -3.84281,1.99557 -5.63088,2.08456 -45.5,2.26453 -27.65809,0.12485 -42.50062,-0.17286 -44.5,-0.89258 z"
         id="path22"
         inkscape:connector-curvature="0" />
      <path
         style="fill:#85bb1f"
         d="m 340.75,719.25543 c -4.8125,-0.18331 -8.75,-0.69939 -8.75,-1.14684 0,-0.44744 -3.77395,-1.10362 -8.38655,-1.45818 C 311.29206,715.70332 286.42909,711.32616 271,707.38776 138.35548,673.52911 35.109215,564.95819 8.6426409,431.5 5.7035611,416.67964 3,397.77744 3,392.04895 c 0,-2.13526 -0.5407895,-4.06255 -1.2017544,-4.28287 -1.72930451,-0.57643 -1.72930451,-54.95573 0,-55.53216 C 2.4592105,332.0136 3,330.08631 3,327.95105 3,322.22256 5.7035611,303.32036 8.6426409,288.5 26.140535,200.26654 78.20105,120.23064 152.25804,67.711015 176.14784,50.768885 208.08633,33.742934 234,24.135549 260.77828,14.207613 294.10858,6.2551159 319.21565,3.8033814 325.97204,3.1436121 331.80767,2.1521562 332.18371,1.600146 332.61293,0.97006599 342.96655,0.59649123 360,0.59649123 c 17.03345,0 27.38707,0.37357476 27.81629,1.00365477 0.37604,0.5520102 6.21167,1.5434661 12.96806,2.2032354 C 425.89142,6.2551159 459.22172,14.207613 486,24.135549 511.91367,33.742934 543.85216,50.768885 567.74196,67.711015 641.73138,120.18272 693.87543,200.34705 711.35736,288.5 714.31268,303.40227 717,322.23059 717,328.03438 c 0,2.18109 0.40163,3.96562 0.89251,3.96562 1.47203,0 2.37137,33.42805 1.25102,46.5 C 714.19601,436.22617 700.93595,483.60522 677.30268,528 625.70254,624.93019 533.38375,692.74023 425.5,712.95425 c -31.13358,5.83345 -53.45672,7.49318 -84.75,6.30118 z M 482.78212,582.44932 c 4.83104,-2.01497 9.9315,-6.99997 11.12914,-10.87723 1.80598,-5.84667 2.1246,-11.50646 6.08399,-108.07209 2.18746,-53.35 5.12445,-124.48074 6.52665,-158.06831 1.4022,-33.58757 2.4209,-65.98757 2.26377,-72 L 508.5,222.5 H 360 211.5 l -0.27118,13.5 c -0.37547,18.69235 12.52051,328.47776 13.89208,333.71334 1.44005,5.49703 6.36427,11.03373 11.3791,12.79446 3.34575,1.17471 23.50999,1.41159 123.28212,1.44831 105.56223,0.0388 119.70975,-0.13447 123,-1.50679 z M 256.35886,544.77163 C 255.73069,543.75524 244.18281,276.96019 244.0437,260.25 L 244,255 h 26 c 14.3,0 26.00416,0.3375 26.00924,0.75 0.005,0.4125 1.1255,60.15 2.48981,132.75 1.36432,72.6 2.48516,137.7375 2.49077,144.75 L 301,546 h -21.94098 c -16.26804,0 -22.13727,-0.3176 -22.70016,-1.22837 z m 78.27665,0.44763 c -0.27696,-0.44814 -0.78436,-11.8183 -1.12755,-25.26703 C 332.56196,482.88054 329.00063,284.4158 329.0003,268.75 L 329,255 h 31 31 l 0.0142,11.75 c 0.0247,20.41027 -3.99655,238.86092 -4.7723,259.25 l -0.74193,19.5 -25.18046,0.26702 c -13.84925,0.14687 -25.40707,-0.0996 -25.68403,-0.54776 z M 419.01018,533.25 c 0.006,-7.0125 1.12645,-72.15 2.49077,-144.75 1.36431,-72.6 2.48473,-132.3375 2.48981,-132.75 C 423.99584,255.3375 435.7,255 450,255 h 26 l -0.0437,5.25 C 475.81719,276.96019 464.26931,543.75524 463.64114,544.77163 463.07825,545.6824 457.20902,546 440.94098,546 H 419 l 0.0102,-12.75 z m 92.77966,-325.15268 c 9.39841,-4.81979 13.44204,-14.8186 9.65711,-23.87944 -1.64164,-3.92997 -5.61138,-8.61273 -8.94695,-10.55394 C 511.10679,172.85313 497.95095,172.3483 469.13784,172 l -41.36215,-0.5 -1.90841,-5.11777 c -2.42248,-6.49639 -7.69918,-11.94094 -14.8007,-15.27153 L 405.5,148.5 H 360 314.5 l -5.56658,2.6107 c -7.10152,3.33059 -12.37822,8.77514 -14.8007,15.27153 l -1.90841,5.11777 -41.43711,0.5 -41.43712,0.5 -3.51522,2.40982 c -11.74215,8.04973 -11.73954,24.75541 0.005,32.2036 L 210.39153,210 h 148.84406 c 144.33973,0 148.95633,-0.0576 152.55422,-1.90268 z M 317.99353,184.08684 C 310.80589,181.83972 306,177.23063 306,172.58446 c 0,-3.10569 6.06852,-8.52733 11.27562,-10.07367 7.47386,-2.2195 77.9749,-2.2195 85.44876,0 5.2071,1.54634 11.27562,6.96798 11.27562,10.07367 0,3.21535 -3.21971,7.49129 -7.27061,9.65573 -4.17599,2.23128 -4.74709,2.26215 -45.22939,2.44504 -22.55,0.10188 -42.12791,-0.1674 -43.50647,-0.59839 z"
         id="path20"
         inkscape:connector-curvature="0" />
      <path
         style="fill:#77b305"
         d="m 344,719.06608 c -6.73224,-0.43252 -8.88525,-0.80226 -6,-1.03037 5.10996,-0.40401 6.45062,-0.20374 -14,-2.09132 C 299.86192,713.71646 270.78479,707.59225 247.5,699.832 111.98203,654.66717 16.480434,534.24518 3.5753216,392.25709 2.8376329,384.14069 2.1137283,379.525 1.9666447,382 c -0.1470835,2.475 -0.6064792,-1.4625 -1.02087926,-8.75 -0.41440005,-7.2875 -0.41440005,-19.2125 0,-26.5 C 1.3601655,339.4625 1.8195612,335.525 1.9666447,338 2.1137283,340.475 2.8376329,335.85931 3.5753216,327.74291 16.450209,186.08737 111.83975,65.471545 246.60051,20.448391 274.71942,11.05395 313.49269,3.5232797 337.21059,2.8498063 L 342.5,2.6996126 338,2.0772774 c -7.20718,-0.996729 19.85133,-1.94348096 35.25,-1.23336461 9.64649,0.44485231 12.02617,0.78028141 8.75,1.23336461 l -4.5,0.6223352 5.28941,0.1501937 c 15.04209,0.4271222 42.9504,4.7100249 63.38127,9.7267007 C 564.33621,41.591333 660.81338,130.67474 699.50941,246.5 c 9.44102,28.25895 16.84762,66.48674 17.63116,91 l 0.15982,5 0.61619,-4.5 c 0.99036,-7.23244 2.20191,25.0797 1.44034,38.41385 C 718.99297,382.78623 718.31377,388 717.8476,388 717.38142,388 717,389.78453 717,391.96562 c 0,2.18109 -0.68953,9.04359 -1.53228,15.25 -8.66389,63.80457 -33.24161,122.55802 -72.17812,172.54299 C 584.98658,654.60544 501.96177,702.32247 407.21562,715.43793 401.00921,716.29707 394.18421,717 392.04895,717 c -2.13526,0 -4.03228,0.41741 -4.21562,0.92757 -0.43805,1.21898 -30.44817,1.99845 -43.83333,1.13851 z m 140.61609,-136.9792 c 4.82893,-2.19291 8.7439,-6.98071 10.29225,-12.58688 0.61592,-2.23007 2.86199,-46.69961 5.07607,-100.5 2.18423,-53.075 4.44531,-107.075 5.02463,-120 0.57932,-12.925 1.74463,-38.8 2.58957,-57.5 2.3629,-52.29473 2.71805,-64.10219 2.01263,-66.9128 l -0.65098,-2.59373 -149.23013,0.25326 L 210.5,222.5 l -0.28534,9.67757 c -0.39187,13.29092 12.59277,327.99027 13.81318,334.77988 1.29753,7.21869 5.04509,12.7186 10.2883,15.09909 4.03627,1.83253 8.45212,1.89954 125.18386,1.89954 116.04271,0 121.16863,-0.0766 125.11609,-1.8692 z M 255.94151,537.75 c -0.0322,-3.9875 -2.62243,-69.04725 -5.75612,-144.57722 -3.13369,-75.52997 -5.50737,-137.51747 -5.27484,-137.75 C 245.14308,255.19025 256.46634,255 270.07334,255 h 24.74001 l 0.5664,9.25 c 0.31152,5.0875 1.47543,65.05 2.58646,133.25 1.11104,68.2 2.27527,129.2875 2.58717,135.75 l 0.5671,11.75 H 278.56024 256 l -0.0585,-7.25 z m 78.67916,1 c -0.29619,-3.4375 -1.04411,-37.525 -1.66206,-75.75 -0.61794,-38.225 -1.71054,-100.325 -2.428,-138 -0.71746,-37.675 -1.1038,-68.8375 -0.85853,-69.25 0.58287,-0.98026 60.07297,-0.98026 60.65584,0 0.24527,0.4125 -0.14107,31.575 -0.85853,69.25 -0.71746,37.675 -1.81006,99.775 -2.428,138 -0.61795,38.225 -1.36587,72.3125 -1.66206,75.75 L 384.84081,545 H 360 335.15919 Z m 84.84235,-6 c 0.30789,-6.7375 1.46686,-67.825 2.57549,-135.75 1.10863,-67.925 2.2705,-127.6625 2.58192,-132.75 l 0.56622,-9.25 h 24.74001 c 13.607,0 24.93026,0.19025 25.16279,0.42278 0.23253,0.23253 -2.14115,62.22003 -5.27484,137.75 -3.13369,75.52997 -5.72394,140.58972 -5.75612,144.57722 L 464,545 h -22.54839 -22.54838 z m 93.51661,-325 c 8.66733,-5.22501 11.84052,-13.65683 8.99497,-23.90154 -1.25931,-4.53388 -7.5052,-10.34665 -12.65382,-11.77634 -2.38905,-0.6634 -18.32626,-1.06306 -42.53064,-1.06654 L 428.08028,171 426.82924,166.75 C 425.00538,160.55407 416.07738,151.87592 408.99012,149.41012 403.91209,147.64337 400.23491,147.5 360,147.5 c -40.23491,0 -43.91209,0.14337 -48.99012,1.91012 -7.08726,2.4658 -16.01526,11.14395 -17.83912,17.33988 l -1.25104,4.25 -38.70986,0.006 c -24.20438,0.003 -40.14159,0.40314 -42.53064,1.06654 -5.18144,1.43881 -11.20084,7.1084 -13.25355,12.48334 -3.44973,9.033 0.78141,19.37555 9.75617,23.84787 l 5.21085,2.59667 h 147.59789 147.59789 l 5.39116,-3.25 z M 317.99353,184.08684 C 310.80589,181.83972 306,177.23063 306,172.58446 c 0,-3.10569 6.06852,-8.52733 11.27562,-10.07367 7.47386,-2.2195 77.9749,-2.2195 85.44876,0 5.2071,1.54634 11.27562,6.96798 11.27562,10.07367 0,3.21535 -3.21971,7.49129 -7.27061,9.65573 -4.17599,2.23128 -4.74709,2.26215 -45.22939,2.44504 -22.55,0.10188 -42.12791,-0.1674 -43.50647,-0.59839 z"
         id="path18"
         inkscape:connector-curvature="0" />
      <path
         style="fill:#5a8704"
         d="M 298.813,652.34618 237.39196,584.5 359.94598,584 c 114.24689,-0.46611 122.77081,-0.61855 125.75233,-2.24895 4.10229,-2.24328 7.80709,-7.17134 9.21003,-12.25105 0.61747,-2.23569 2.84147,-46.564 5.0422,-100.5 2.1656,-53.075 4.20087,-101 4.52281,-106.5 1.4719,-25.14514 4.73203,-104.46723 5.23166,-127.29094 l 0.55363,-25.29093 4.2718,-2.93907 c 5.90515,-4.06285 8.85414,-10.32802 8.25605,-17.54012 -0.24807,-2.99142 -0.18901,-5.40714 0.13124,-5.36826 0.32025,0.0389 44.68227,39.5575 98.58227,87.81917 l 98,87.7485 -0.35278,13.93082 c -0.19403,7.66196 -0.75653,14.08083 -1.25,14.26416 -0.49347,0.18334 -0.89722,2.08036 -0.89722,4.21562 0,5.69825 -2.6945,24.57646 -5.63088,39.45105 -22.98086,116.4124 -107.01078,217.18551 -217.90016,261.31736 -30.31278,12.0639 -68.70829,21.52301 -96.60344,23.79918 -4.60104,0.37543 -8.59052,1.00876 -8.86552,1.40739 -0.275,0.39863 -6.63484,1.04961 -14.13298,1.4466 l -13.63298,0.72182 z M 317.99353,184.08684 C 310.80589,181.83972 306,177.23063 306,172.58446 c 0,-3.10569 6.06852,-8.52733 11.27562,-10.07367 7.47386,-2.2195 77.9749,-2.2195 85.44876,0 5.2071,1.54634 11.27562,6.96798 11.27562,10.07367 0,3.21535 -3.21971,7.49129 -7.27061,9.65573 -4.17599,2.23128 -4.74709,2.26215 -45.22939,2.44504 -22.55,0.10188 -42.12791,-0.1674 -43.50647,-0.59839 z"
         id="path16"
         inkscape:connector-curvature="0" />
      <path
         style="fill:#0b0b0b"
         d="m 314.3825,182.08625 c -7.85897,-3.56888 -9.71463,-10.1053 -4.3038,-15.15977 1.69328,-1.58176 4.73078,-3.3348 6.75,-3.89563 2.20976,-0.61376 19.39622,-1.0197 43.1713,-1.0197 23.77508,0 40.96154,0.40594 43.1713,1.0197 2.01922,0.56083 5.05672,2.31387 6.75,3.89563 5.41083,5.05447 3.55517,11.59089 -4.3038,15.15977 -3.81015,1.73025 -7.21529,1.86983 -45.6175,1.86983 -38.40221,0 -41.80735,-0.13958 -45.6175,-1.86983 z"
         id="path14"
         inkscape:connector-curvature="0" />
    </g>
  </g>
  <g
     inkscape:groupmode="layer"
     id="layer2"
     inkscape:label="Layer 2"
     style="filter:url(#filter1524)">
    <ellipse
       style="display:inline;fill:#ff0000;fill-opacity:1;stroke-width:0.04389309"
       id="path66"
       cx="699.64313"
       cy="706.89838"
       rx="15.016"
       ry="15.047"
       inkscape:export-xdpi="112.25304"
       inkscape:export-ydpi="112.25304" />
    <path
       style="fill:#ffffff;fill-opacity:1;stroke-width:0.06741484"
       d="m 695.10207,716.1912 c -1.12325,-0.0587 -1.07095,0.0643 -1.1908,-2.80222 -0.20618,-4.93132 -0.47067,-11.56409 -0.47111,-11.81445 l -5.1e-4,-0.28651 h 6.14461 6.14461 l -0.0463,1.23032 c -0.16079,4.27082 -0.51592,12.5537 -0.55264,12.88959 -0.0336,0.30739 -0.0853,0.44246 -0.22149,0.57864 -0.17762,0.17763 -0.17795,0.17767 -1.62066,0.2226 -1.64649,0.0513 -7.08997,0.0393 -8.18569,-0.018 z m 2.08668,-3.66176 c -0.024,-1.23285 -0.0737,-3.89489 -0.11037,-5.91565 -0.0367,-2.02076 -0.0827,-3.77065 -0.10214,-3.88863 -0.0337,-0.20414 -0.0538,-0.21682 -0.41432,-0.26187 -0.37277,-0.0466 -1.81936,-0.006 -1.87794,0.0523 -0.0378,0.0378 0.25797,8.09283 0.41716,11.36218 l 0.0435,0.89324 h 1.04388 1.04389 z m 3.5594,1.75279 c 0.0542,-0.67555 0.17525,-7.48339 0.17486,-9.83297 l -3.2e-4,-1.92857 -0.41437,-0.0433 c -0.52981,-0.0554 -1.33804,-0.0554 -1.86784,0 l -0.41438,0.0433 -4.2e-4,1.72633 c -5.3e-4,2.19048 0.1234,9.23205 0.17543,9.96779 l 0.0393,0.55617 h 1.13425 1.13425 z m 3.30161,-0.33708 c 0.14884,-2.77849 0.45635,-11.38829 0.40846,-11.43622 -0.0707,-0.0707 -2.17561,-0.0461 -2.24502,0.0263 -0.0381,0.0398 -0.0946,1.7546 -0.13762,4.17972 -0.0401,2.26177 -0.0924,4.99965 -0.11611,6.08419 l -0.0431,1.97188 h 1.0446 1.0446 z"
       id="path375"
       inkscape:connector-curvature="0" />
    <path
       style="fill:#ffffff;fill-opacity:1;stroke-width:0.06741484"
       d="m 693.33098,700.5478 c -0.22657,-0.0916 -0.43065,-0.40111 -0.43065,-0.65325 0,-0.31555 0.16985,-0.54621 0.46198,-0.62735 0.13523,-0.0376 0.96315,-0.0685 1.83982,-0.0687 l 1.59395,-3.7e-4 0.15884,-0.31672 c 0.3159,-0.62991 0.53172,-0.68647 2.61948,-0.68647 2.08775,0 2.30357,0.0566 2.61947,0.68647 l 0.15884,0.31672 1.59395,3.7e-4 c 0.87667,2.1e-4 1.70459,0.0311 1.83982,0.0687 0.30145,0.0837 0.46199,0.31341 0.46199,0.66096 0,0.31337 -0.22672,0.57937 -0.54871,0.64377 -0.32219,0.0644 -12.20696,0.0413 -12.36878,-0.0241 z m 8.3281,-1.05227 c 0.25267,-0.2126 0.26547,-0.42318 0.0395,-0.64918 -0.15828,-0.15827 -0.22463,-0.17069 -1.15292,-0.21582 -0.54173,-0.0263 -1.4095,-0.0263 -1.92838,0 -0.8654,0.0439 -0.95959,0.0615 -1.13919,0.21263 -0.25561,0.21508 -0.25176,0.43073 0.0116,0.65237 l 0.20742,0.17453 h 1.87727 1.87727 z"
       id="path377"
       inkscape:connector-curvature="0" />
  </g>
</svg>
