<?xml version="1.0" encoding="UTF-8" standalone="no"?>
<!-- Created with Inkscape (http://www.inkscape.org/) -->

<svg
   xmlns:dc="http://purl.org/dc/elements/1.1/"
   xmlns:cc="http://creativecommons.org/ns#"
   xmlns:rdf="http://www.w3.org/1999/02/22-rdf-syntax-ns#"
   xmlns:svg="http://www.w3.org/2000/svg"
   xmlns="http://www.w3.org/2000/svg"
   xmlns:sodipodi="http://sodipodi.sourceforge.net/DTD/sodipodi-0.dtd"
   xmlns:inkscape="http://www.inkscape.org/namespaces/inkscape"
   version="1.1"
   id="svg2"
   width="718"
   height="720"
   viewBox="0 0 718 720"
   sodipodi:docname="vetorizada.svg"
   inkscape:version="0.92.2 (5c3e80d, 2017-08-06)">
  <metadata
     id="metadata8">
    <rdf:RDF>
      <cc:Work
         rdf:about="">
        <dc:format>image/svg+xml</dc:format>
        <dc:type
           rdf:resource="http://purl.org/dc/dcmitype/StillImage" />
        <dc:title></dc:title>
      </cc:Work>
    </rdf:RDF>
  </metadata>
  <defs
     id="defs6" />
  <sodipodi:namedview
     pagecolor="#ffffff"
     bordercolor="#666666"
     borderopacity="1"
     objecttolerance="10"
     gridtolerance="10"
     guidetolerance="10"
     inkscape:pageopacity="0"
     inkscape:pageshadow="2"
     inkscape:window-width="1024"
     inkscape:window-height="715"
     id="namedview4"
     showgrid="false"
     inkscape:zoom="0.65555556"
     inkscape:cx="473.07068"
     inkscape:cy="410.22693"
     inkscape:window-x="-8"
     inkscape:window-y="-8"
     inkscape:window-maximized="1"
     inkscape:current-layer="svg2" />
  <g
     id="g14"
     transform="translate(1.5254241,-1.5254237)">
    <path
       style="fill:#d0ecf2"
       d="m 328.93572,722.70637 c -0.26761,-0.26634 -7.46156,-0.94697 -15.98656,-1.5125 -25.44861,-1.6882 -56.80466,-9.22849 -86.47905,-20.79589 C 111.98599,655.77083 27.952913,556.28443 2.8268491,435.6277 -0.8398862,418.01984 -2.0169884,404.48044 -2.7439292,371.55085 -3.6586429,330.11536 -1.1379724,303.0613 6.4334741,273.05085 38.567305,145.6841 138.93733,45.17181 266.51139,12.604319 c 26.81449,-6.8452824 52.12289,-9.5679739 88.93777,-9.5679739 36.39715,0 58.63486,2.2286473 85.08954,8.5276139 130.38694,31.045649 234.368,134.874781 265.87537,265.486891 6.50587,26.96973 8.03509,43.14673 8.03509,85 0,32.01833 -0.91513,48.18503 -3.59962,63.59107 -21.10133,121.09868 -106.24107,225.62509 -220.928,271.23424 -37.80734,15.03537 -72.45804,22.67157 -110.47238,24.34552 -36.02923,1.58653 -49.99858,1.99712 -50.51344,1.48469 z M 151.20034,549.35027 c 24.06314,-4.8358 43.63449,-9.14242 43.49187,-9.57027 -0.64589,-1.93767 -66.24283,-68.62417 -66.85779,-67.96828 -0.38114,0.40652 -4.80904,17.61413 -9.83976,38.23913 -5.03072,20.625 -9.75626,39.8625 -10.5012,42.75 -0.74494,2.8875 -1.05966,5.27065 -0.69937,5.29589 0.36029,0.0252 20.3431,-3.91067 44.40625,-8.74647 z M 336.62686,405.73518 c 68.65226,-65.62361 125.38034,-120.00184 126.06238,-120.84051 1.05211,-1.29371 -3.97619,-6.89213 -33.17311,-36.93433 -18.92726,-19.47522 -34.85785,-35.40949 -35.40131,-35.40949 -1.3067,0 -253.28118,240.68169 -252.93409,241.59828 0.51056,1.34826 68.9872,70.90172 69.80402,70.90172 0.45089,0 56.98984,-53.69205 125.64211,-119.31567 z m 152.22246,-146.0836 c 4.39161,-4.43099 6.09053,-6.81472 5.52353,-7.75 -0.45037,-0.7429 -16.08028,-17.20212 -34.73313,-36.57605 -27.32298,-28.37921 -34.23266,-35.05009 -35.55242,-34.32374 -0.90098,0.49587 -4.07493,3.38663 -7.05323,6.42393 -4.89077,4.98765 -5.27808,5.69629 -4,7.31867 2.80583,3.5617 68.19338,71.30646 68.82532,71.30646 0.35615,0 3.50162,-2.87967 6.98993,-6.39927 z m 36.5491,-36.31633 c 39.92081,-38.81057 43.43098,-42.48467 45.00639,-47.10825 2.16076,-6.34149 1.99575,-15.37847 -0.36456,-19.96599 -2.67136,-5.19208 -36.26865,-38.72221 -43.45168,-43.36483 -9.43253,-6.09653 -18.46015,-7.51967 -25.81225,-4.06911 -3.17283,1.48911 -56.73285,52.02146 -57.67096,54.41091 -0.33442,0.85177 68.49993,71.81287 69.66059,71.81287 0.31995,0 6.00456,-5.27202 12.63247,-11.7156 z"
       id="path28"
       inkscape:connector-curvature="0" />
    <path
       style="fill:#a0d9e6"
       d="M 318.94916,721.51223 C 202.43886,711.33056 93.137849,636.85031 37.394641,529.65442 4.68487,466.75254 -7.7276111,402.04304 -1.5834187,326.45163 3.2430922,267.07154 25.605153,206.27573 61.203123,155.75365 74.290607,137.17936 84.277567,125.49409 102.83482,107.04235 140.97675,69.117299 180.90554,43.399924 230.59466,24.754656 279.26893,6.4901965 332.96708,-0.2881673 390.94916,4.5129688 c 20.27342,1.6787163 30.0463,3.25779 49.70324,8.0309032 129.80032,31.518221 231.56706,132.451268 264.17112,262.006978 9.24749,36.74586 12.27771,79.6978 8.645,122.5387 -9.89786,116.72665 -80.69184,223.74234 -186.01936,281.19609 -48.03765,26.20344 -109.11124,42.75971 -157.75,42.764 -8.49919,7.5e-4 -13.75,0.38309 -13.75,1.00121 0,1.33886 -18.61701,1.06784 -37,-0.53862 z m -168.5,-170.99597 c 23.65,-4.69591 43.8509,-8.88279 44.89089,-9.30419 1.59283,-0.6454 -3.51396,-6.31437 -32.39731,-35.9637 -18.85851,-19.35864 -34.64159,-35.19752 -35.0735,-35.19752 -1.0444,0 -0.48205,-2.09981 -11.888,44.39003 -9.86342,40.20258 -10.78008,44.60826 -9.28208,44.61168 0.4125,9.4e-4 20.1,-3.84039 43.75,-8.5363 z m 126.8087,-86.7782 c 35.85521,-34.27203 92.6413,-88.53668 126.1913,-120.5881 33.55,-32.05142 61.14857,-58.68137 61.33015,-59.17767 0.3268,-0.89318 -69.53633,-72.92144 -70.72946,-72.92144 -0.34064,0 -8.26982,7.3125 -17.62042,16.25 -9.35059,8.9375 -66.40568,63.43463 -126.78909,121.10474 -60.38341,57.67011 -109.65373,105.21834 -109.4896,105.66274 0.69588,1.88414 69.41683,71.90346 70.60712,71.94112 0.71978,0.0228 30.64478,-27.99935 66.5,-62.27139 z M 489.38869,260.35638 c 3.70068,-3.40695 6.5782,-6.84503 6.39449,-7.64016 -0.38843,-1.68119 -67.62972,-72.12883 -69.76901,-73.09589 -1.64407,-0.7432 -15.29202,12.19679 -14.84049,14.07066 0.40599,1.68484 69.85054,73.5099 70.73411,73.15882 0.41381,-0.16443 3.78022,-3.08647 7.4809,-6.49343 z m 40.9402,-40.69813 c 36.97564,-35.40406 39.19714,-37.73752 40.97061,-43.03554 2.1885,-6.53784 2.07796,-15.03201 -0.2627,-20.18626 -2.51151,-5.53049 -35.5928,-38.89027 -43.75642,-44.12478 -3.39282,-2.17548 -8.24086,-4.53556 -10.77341,-5.24464 -5.09689,-1.42704 -13.06258,-0.87116 -16.9417,1.18227 -3.74573,1.98282 -57.70849,54.122 -57.39256,55.45308 0.35481,1.49489 68.98503,72.21277 70.15618,72.29026 0.48385,0.032 8.58385,-7.31846 18,-16.33439 z"
       id="path26"
       inkscape:connector-curvature="0" />
    <path
       style="fill:#67c7de"
       d="m 326.94916,721.95708 c -31.88859,-2.74821 -65.45548,-10.18996 -94.92927,-21.04571 -26.12797,-9.62343 -59.6331,-27.45345 -84.08003,-44.74383 C 125.17901,640.06964 94.728808,611.20683 76.604412,588.55085 -29.181899,456.31511 -29.595296,269.11863 75.608444,137.55085 93.710907,114.91191 124.17255,86.036626 146.93986,69.934162 211.36611,24.367905 285.94943,1.4370415 363.44916,3.367734 c 31.78148,0.7917481 52.81809,3.6720917 83,11.364405 135.53822,34.543951 240.38541,148.914011 263.39552,287.318711 6.16113,37.0589 6.66527,75.15997 1.46871,111 -22.58226,155.7471 -143.12449,278.34274 -298.36423,303.44679 -16.76982,2.71187 -36.64438,4.55321 -49.14522,4.55321 -4.56985,0 -7.85478,0.41821 -7.85478,1 0,1.16967 -14.89885,1.1215 -29,-0.0938 z M 151.42602,551.05548 c 24.70263,-4.94745 45.29762,-9.37911 45.76665,-9.84814 0.937,-0.937 -67.83201,-72.15649 -69.67377,-72.15649 -1.04906,0 -22.56974,85.11957 -22.56974,89.26889 0,0.95211 0.35167,1.73111 0.7815,1.73111 0.42982,0 20.99273,-4.04791 45.69536,-8.99537 z m 105.80781,-67.22975 c 24.86843,-23.77381 75.36533,-72.03269 112.21533,-107.24195 93.15694,-89.00913 94.90554,-90.69151 95.77611,-92.14916 0.53107,-0.88921 -10.49009,-12.84627 -34.90799,-37.8723 -19.62624,-20.11505 -36.04563,-36.44651 -36.48751,-36.29214 -0.90275,0.31537 4.24183,-4.57976 -145.18408,138.14405 -60.38318,57.67486 -109.65462,105.21885 -109.49207,105.6533 0.69118,1.84739 70.41312,72.8867 71.58021,72.93269 0.70656,0.0278 21.63156,-19.40067 46.5,-43.17449 z M 489.90141,260.75728 c 3.94769,-3.73647 7.0359,-7.39544 6.86268,-8.13105 -0.17321,-0.73561 -16.20516,-17.81699 -35.62656,-37.95863 -29.01087,-30.08674 -35.61288,-36.4551 -37,-35.69052 -0.9286,0.51185 -4.55107,3.83809 -8.04992,7.39166 -4.70398,4.77753 -6.13707,6.85195 -5.5,7.96133 1.58108,2.75328 70.55562,73.82334 71.35199,73.51974 0.43131,-0.16443 4.01412,-3.35607 7.96181,-7.09253 z m 50.8896,-50.17863 c 31.54534,-30.25245 32.66363,-31.76053 32.64788,-44.0278 -0.007,-5.2088 -0.53003,-8.93091 -1.5,-10.66813 -2.20082,-3.9417 -25.23992,-28.09711 -34.64029,-36.31871 -11.51815,-10.07382 -19.0227,-13.89545 -27.34944,-13.92746 -4.5973,-0.0177 -7.57258,0.55157 -10.16415,1.94465 -3.92541,2.11008 -58.83585,54.2976 -58.83585,55.91827 0,0.53253 6.41433,7.51195 14.25406,15.50981 7.83973,7.99786 23.86876,24.34856 35.62006,36.33488 11.75131,11.98632 21.70791,21.66132 22.12579,21.5 0.41787,-0.16132 12.94675,-11.9808 27.84194,-26.26551 z"
       id="path24"
       inkscape:connector-curvature="0" />
    <path
       style="fill:#54b5cd"
       d="m 335.44916,722.35892 c -10.13047,-0.67153 -37.36053,-4.45227 -49.5,-6.8728 C 168.63551,692.09454 69.12517,609.43444 24.189774,498.05085 c -12.220669,-30.29197 -19.0320501,-56.52103 -24.4107047,-94 -1.8363014,-12.79552 -2.2289197,-20.03655 -2.2501859,-41.5 -0.028298,-28.56077 1.6031771,-44.41247 7.5408596,-73.26832 C 34.2115,147.65989 145.68517,37.657394 287.94916,10.13641 c 26.91013,-5.2057678 40.2989,-6.4830579 68,-6.4872085 28.43062,-0.00426 43.40167,1.4647551 71,6.9667815 143.44141,28.596603 256.678,144.448617 281.92329,288.434867 4.68847,26.74067 5.4689,35.71972 5.47571,63 0.007,28.45792 -1.47164,43.51154 -6.97446,71 -20.12717,100.54212 -83.55922,188.59032 -172.92454,240.03158 -49.86135,28.70163 -104.24707,44.20661 -166.75,47.53922 -6.4625,0.34457 -11.75,1.03211 -11.75,1.52785 0,0.85047 -9.38312,0.94633 -20.5,0.20942 z m -183,-170.92347 c 24.2,-4.80361 44.54607,-9.21776 45.21348,-9.80922 0.9131,-0.80918 -7.43633,-9.98686 -33.72946,-37.07538 -19.21862,-19.8 -35.61111,-36.1424 -36.42775,-36.31644 -0.87549,-0.18659 -1.70815,0.63415 -2.02905,2 -0.29933,1.27404 -5.27997,21.64145 -11.06809,45.2609 -5.78813,23.61946 -10.28651,43.56299 -9.99642,44.31895 0.29049,0.75701 1.31583,1.1455 2.28236,0.86476 0.96521,-0.28035 21.55493,-4.43996 45.75493,-9.24357 z m 130.63549,-91.6346 c 39.27813,-37.5375 72.31373,-69.15 73.41244,-70.25 1.09872,-1.1 26.19462,-25.13149 55.76867,-53.40332 29.57405,-28.27182 53.63879,-51.97526 53.4772,-52.6743 -0.4677,-2.0233 -70.14542,-73.40866 -71.65966,-73.41587 -0.75123,-0.004 -6.37738,4.83099 -12.50257,10.74349 -6.12518,5.9125 -63.22304,60.44286 -126.88413,121.17858 -63.66109,60.73572 -115.74744,111.08046 -115.74744,111.8772 0,1.44768 70.57366,74.19422 71.9781,74.19422 0.40844,0 32.87927,-30.7125 72.15739,-68.25 z m 207.80382,-199.1889 7.38925,-7.4389 -5.84011,-6.3111 c -15.67016,-16.93391 -66.01354,-68.8111 -66.77662,-68.8111 -0.47775,0 -4.22747,3.01806 -8.33269,6.7068 -4.9635,4.45994 -7.36607,7.32237 -7.17159,8.54427 0.39864,2.50468 69.73853,74.74893 71.74388,74.74893 0.87924,0 4.92379,-3.34751 8.98788,-7.4389 z m 50.47863,-50.081 c 31.23142,-30.2029 32.58206,-32.02108 32.58206,-43.86072 0,-4.9333 -0.58533,-8.19707 -1.99075,-11.10028 -1.22655,-2.53371 -9.38394,-11.42446 -21.25,-23.16042 -21.89707,-21.65697 -28.32081,-26.14587 -38.77154,-27.09351 -10.86863,-0.98553 -12.12034,-0.11605 -43.18921,30.00113 -15.28918,14.82083 -27.7985,27.52929 -27.7985,28.241 0,1.75696 69.92282,73.4927 71.63538,73.4927 0.74776,0 13.69991,-11.93396 28.78256,-26.5199 z"
       id="path22"
       inkscape:connector-curvature="0" />
    <path
       style="fill:#2fb1d0"
       d="m 333.44916,722.038 c -38.11621,-3.21353 -75.1466,-11.67737 -108,-24.685 C 132.46572,660.53813 58.961214,586.56448 22.442685,493.05085 4.1989618,446.33383 -5.2554124,389.74766 -2.2432723,345.30085 3.1947959,265.05731 29.12191,197.16944 77.555743,136.35415 87.609501,123.73028 117.62859,93.711191 130.25246,83.657433 191.16098,35.149355 258.79585,9.3096745 339.11207,3.8633033 c 38.53395,-2.613049 87.43784,4.3997958 130.47244,18.7098197 52.7522,17.541358 99.46545,46.5086 139.39961,86.442767 55.41173,55.41172 91.02301,126.70518 101.41654,203.03496 0.86125,6.325 2.11774,14.875 2.79219,19 0.72083,4.4086 1.22629,17.1864 1.22629,31 0,13.8136 -0.50546,26.5914 -1.22629,31 -0.67445,4.125 -1.93026,12.675 -2.79067,19 -9.33747,68.64089 -39.30774,133.8023 -86.0086,187 -60.61146,69.04349 -146.20279,111.93469 -239.44442,119.98946 -6.325,0.54639 -15.22662,0.99728 -19.78138,1.00199 -6.43312,0.007 -8.40986,0.34333 -8.85699,1.50855 -0.62813,1.63686 -7.49029,1.78308 -22.86163,0.48715 z M 152.88163,551.69835 c 26.95117,-5.48266 45.59474,-9.72914 45.83139,-10.43909 0.56994,-1.70981 -69.74566,-73.35856 -71.63626,-72.99447 -1.14154,0.21984 -4.27223,11.48994 -12.30333,44.29047 -5.92469,24.19757 -10.78389,45.00809 -10.79822,46.24559 -0.0174,1.50656 0.55218,2.2318 1.72395,2.1949 0.9625,-0.0303 22.19461,-4.21413 47.18247,-9.2974 z M 339.82266,406.09637 c 69.91957,-66.79996 127.1265,-121.88303 127.1265,-122.40682 0,-0.52378 -7.52254,-8.64427 -16.71676,-18.04552 -35.55805,-36.35875 -55.69768,-56.59318 -56.32802,-56.59318 -0.62784,0 -222.86362,211.87292 -245.22946,233.7944 -5.92583,5.8081 -10.65083,10.90525 -10.5,11.32701 0.15083,0.42176 16.24924,17.2297 35.77424,37.35098 22.2466,22.926 36.10611,36.48026 37.1235,36.30588 0.89292,-0.15305 58.83042,-54.93279 128.75,-121.73275 z m 150.6099,-144.41446 c 5.036,-4.53693 7.52133,-7.48163 7.32056,-8.6736 -0.28626,-1.6996 -65.07424,-70.21033 -70.37248,-74.41613 l -2.46743,-1.95867 -8.00667,7.95867 c -4.40366,4.37727 -7.88307,8.48104 -7.73202,9.11949 0.48058,2.03125 71.22328,75.34383 72.45408,75.08613 0.64869,-0.13582 4.61048,-3.33797 8.80396,-7.11589 z m 50.77934,-50.28078 c 31.98601,-30.62679 33.24516,-32.3266 33.22329,-44.85028 -0.0102,-5.84004 -0.51407,-8.94498 -1.86626,-11.5 -2.65654,-5.01966 -38.08006,-40.08159 -44.61977,-44.16431 -3.025,-1.8885 -7.075,-4.08139 -9,-4.87309 -4.8503,-1.9948 -14.65599,-1.79801 -19.13348,0.384 -4.53943,2.21219 -60.05456,55.51828 -59.65729,57.28343 0.48251,2.14393 71.19184,74.44244 72.51564,74.14541 0.67519,-0.15149 13.51723,-12.04281 28.53787,-26.42516 z"
       id="path20"
       inkscape:connector-curvature="0" />
    <path
       style="fill:#00a4ca"
       d="m 337.94916,722.10943 c -5.225,-0.30722 -8.6,-0.84388 -7.5,-1.19258 1.23461,-0.39137 0.20179,-0.67839 -2.69878,-0.75 -2.58433,-0.0638 -10.00933,-0.799 -16.5,-1.63379 C 176.7553,701.23527 63.158052,608.69457 18.504351,480.05085 9.6424867,454.52053 2.070944,419.95899 0.3523417,397.19303 c -0.3852665,-5.10355 -1.0187035,-8.76428 -1.4076377,-8.13497 -0.3889343,0.62931 -1.028678,-5.18987 -1.4216528,-12.93151 -0.7996172,-15.75252 0.2356107,-42.98245 1.5549903,-40.9014 0.5349991,0.84385 0.8460564,-0.14327 0.8558034,-2.71584 C -0.0163402,319.36157 6.591832,283.41425 12.966307,261.61498 23.833695,224.45095 43.079787,184.82442 65.208816,154.05085 112.80182,87.866001 180.72624,40.241401 259.23286,18.012632 280.06488,12.114145 313.89141,6.0829571 326.40762,6.035535 c 2.55414,-0.00968 3.55649,-0.32288 2.72356,-0.8510295 -2.06648,-1.3103355 23.93684,-2.314776 39.7118,-1.5339635 7.7584,0.384017 14.10618,1.0811837 14.10618,1.5492593 0,0.4680756 1.9125,0.858085 4.25,0.8666875 12.01326,0.044212 47.23483,6.5707422 68.13189,12.6247872 36.71431,10.636427 77.94531,30.562325 107.99391,52.190723 30.93246,22.264579 56.41963,47.296401 79.34819,77.930581 13.38332,17.88104 21.06973,30.42259 32.32201,52.73827 18.28217,36.25745 28.86841,69.93666 34.89013,111 1.12917,7.7 2.05547,16.16406 2.05845,18.80902 0.003,2.64496 0.38687,4.57326 0.85309,4.28512 0.46622,-0.28814 1.14539,5.71283 1.50927,13.33549 0.73461,15.38879 -0.19607,40.07037 -1.51096,40.07037 -0.46529,0 -0.84842,1.9125 -0.8514,4.25 -0.007,5.83524 -3.59164,29.78565 -6.57153,43.91232 -11.40188,54.05272 -37.29573,107.76562 -73.14251,151.72314 -11.10783,13.62111 -35.77397,38.28725 -49.39508,49.39508 -41.41496,33.77335 -90.29077,58.27541 -141.14695,70.75875 -23.3707,5.73666 -45.57507,8.81882 -75.92194,10.53864 -8.61227,0.48808 -10.57866,0.87848 -10.14301,2.01376 0.58594,1.52693 0.4264,1.53114 -17.67356,0.46689 z M 150.41307,553.01485 c 24.76985,-4.9698 46.0778,-9.2607 47.35101,-9.53534 1.58033,-0.3409 2.21499,-1.09046 2,-2.36214 -0.28678,-1.69632 -68.86724,-73.10128 -71.4056,-74.34645 -0.59988,-0.29427 -1.60175,-0.21917 -2.22639,0.16687 -1.52395,0.94185 -23.65637,91.43691 -22.86631,93.49578 0.34134,0.8895 0.95599,1.61728 1.36591,1.61728 0.40991,0 21.01153,-4.0662 45.78138,-9.036 z m 137.11908,-95.964 c 41.09391,-39.325 98.16139,-93.90983 126.81661,-121.29962 28.65522,-27.3898 52.24443,-50.67904 52.42046,-51.75388 0.43889,-2.6798 -70.34804,-75.17519 -72.98102,-74.74244 -0.99033,0.16277 -12.23553,10.19594 -24.98935,22.29594 -68.27574,64.77564 -229.53455,218.93997 -230.68438,220.53557 -1.57394,2.18413 -0.8556,2.98511 43.27219,48.25013 18.12165,18.58866 28.65882,28.68449 29.74589,28.5 0.92586,-0.15714 35.30568,-32.4607 76.3996,-71.7857 z M 491.34307,261.42473 c 4.18335,-3.91937 7.60609,-7.69912 7.60609,-8.39944 0,-0.70033 -4.63665,-6.04358 -10.30367,-11.87388 -5.66702,-5.83031 -21.75452,-22.52556 -35.75,-37.10056 -13.99548,-14.575 -26.34633,-26.62872 -27.44633,-26.78605 -2.87599,-0.41134 -18.06814,14.96265 -16.86339,17.06523 0.47487,0.82875 11.18285,12.24247 23.79552,25.36382 42.90418,44.63454 48.70425,50.38105 50.0626,49.60027 0.7112,-0.4088 4.71583,-3.95002 8.89918,-7.86939 z m 50.55629,-49.87388 c 23.53501,-22.53197 27.5671,-26.83038 30.22876,-32.22536 2.41023,-4.88536 3.08142,-7.57598 3.11816,-12.5 0.0778,-10.42788 -1.84732,-13.34764 -22.45986,-34.06378 -23.46493,-23.58285 -31.28901,-28.71086 -43.8057,-28.71086 -4.03614,0 -6.93347,0.66152 -9.85451,2.25 -4.22184,2.29586 -58.61614,53.84592 -59.64447,56.52571 -0.37038,0.96517 4.19148,6.35196 13.21041,15.59928 56.75893,58.19627 59.29567,60.70233 60.65657,59.92293 0.76627,-0.43886 13.61406,-12.49792 28.55064,-26.79792 z"
       id="path18"
       inkscape:connector-curvature="0" />
    <path
       style="fill:#008faf"
       d="m 356.62302,719.39137 c -0.37062,-0.37062 -0.67386,-74.32352 -0.67386,-164.33977 V 391.38569 l 55.48376,-52.91742 c 33.37317,-31.82953 55.49024,-53.64489 55.5,-54.7429 0.0203,-2.28653 -70.61965,-74.67518 -72.869,-74.67284 -0.88812,9.2e-4 -9.61185,7.65092 -19.38608,17 -9.77422,9.34907 -17.98672,16.99832 -18.25,16.99832 -0.26327,0 -0.47868,-54.01654 -0.47868,-120.03675 V 2.9773464 l 13.25,0.684903 c 7.2875,0.3766967 13.475,1.0009264 13.75,1.3871773 0.275,0.3862509 4.26448,1.0094471 8.86552,1.3848804 11.55651,0.9429826 34.91386,4.9952559 49.55942,8.5980769 24.20182,5.953669 46.11202,13.907355 70.07506,25.438158 104.32067,50.198182 177.62344,148.075028 197.02658,263.077888 1.39171,8.24867 2.80892,18.92171 3.14936,23.71788 0.34044,4.79616 0.93408,8.52556 1.31919,8.28755 0.38512,-0.23802 0.99793,5.80396 1.36181,13.42662 0.69555,14.57047 -0.17211,40.07037 -1.36343,40.07037 -0.38415,0 -0.98854,3.77395 -1.3431,8.38655 -0.35455,4.61261 -1.8091,15.30011 -3.23233,23.75 -22.86062,135.72627 -121.04169,245.78435 -253.72631,284.41971 -16.56486,4.82339 -43.14904,9.99816 -60.69177,11.81403 -18.26626,1.89076 -36.44601,2.85036 -37.32614,1.97023 z M 491.34307,261.42473 c 4.18335,-3.91937 7.60609,-7.69912 7.60609,-8.39944 0,-0.70033 -4.63665,-6.04358 -10.30367,-11.87388 -5.66702,-5.83031 -21.75452,-22.52556 -35.75,-37.10056 -13.99548,-14.575 -26.34633,-26.62872 -27.44633,-26.78605 -2.87599,-0.41134 -18.06814,14.96265 -16.86339,17.06523 0.47487,0.82875 11.18285,12.24247 23.79552,25.36382 42.90418,44.63454 48.70425,50.38105 50.0626,49.60027 0.7112,-0.4088 4.71583,-3.95002 8.89918,-7.86939 z m 50.55629,-49.87388 c 23.53501,-22.53197 27.5671,-26.83038 30.22876,-32.22536 2.41023,-4.88536 3.08142,-7.57598 3.11816,-12.5 0.0778,-10.42788 -1.84732,-13.34764 -22.45986,-34.06378 -23.46493,-23.58285 -31.28901,-28.71086 -43.8057,-28.71086 -4.03614,0 -6.93347,0.66152 -9.85451,2.25 -4.22184,2.29586 -58.61614,53.84592 -59.64447,56.52571 -0.37038,0.96517 4.19148,6.35196 13.21041,15.59928 56.75893,58.19627 59.29567,60.70233 60.65657,59.92293 0.76627,-0.43886 13.61406,-12.49792 28.55064,-26.79792 z"
       id="path16"
       inkscape:connector-curvature="0" />
  </g>
</svg>
